<svg class="social-icon" viewBox="0 0 24 24" fill="currentColor" aria-hidden="true" focusable="false"><path d="M21.2424919,12.4162328c2.0100108-2.0100108,2.0100108-5.265161,0-7.2751718-1.7787706-1.7787706-4.5821127-2.0100108-6.6276989-.5478614l-.0569209.0391329c-.5122857.3664267-.6296852,1.0779351-.2632578,1.5866633s1.0779346.629685,1.5866636.2632581l.0569209-.0391329c1.141971-.814677,2.7037313-.6866053,3.6927274.3059485,1.1206255,1.1206255,1.1206255,2.9349715,0,4.055597l-3.9915617,3.9986756c-1.1206255,1.1206255-2.9349715,1.1206255-4.055597,0-.9925538-.9925538-1.1206255-2.5543142-.3059488-3.6927279l.0391332-.0569209c.3664263-.5122857.2454701-1.2237945-.2632578-1.5866631s-1.223794-.2454701-1.5866636.2632578l-.0391332.0569209c-1.4657063,2.042029-1.2344662,4.8453716.5443045,6.6241422,2.0100108,2.0100108,5.265161,2.0100108,7.2751718,0l3.9951184-3.9951184ZM2.7575081,11.5837678c-2.0100108,2.0100103-2.0100108,5.2651605,0,7.2751713,1.7787705,1.7787706,4.5821131,2.0100108,6.6276993.5478611l.0569209-.0391332c.5122857-.3664263.6296852-1.0779346.2632578-1.5866636s-1.0779351-.6296852-1.5866636-.2632578l-.0569209.0391332c-1.141971.8146767-2.7037313.686605-3.6927279-.3059488-1.1206249-1.1241822-1.1206249-2.9385282.0000005-4.0591537l3.9915612-3.9951189c1.1206255-1.1206255,2.9349721-1.1206255,4.0555976,0,.9925538.9925538,1.1206255,2.5543147.3059488,3.6962857l-.0391332.0569209c-.3664263.5122857-.2454701,1.223794.2632578,1.5866636s1.223794.2454701,1.5866636-.2632578l.0391332-.0569209c1.4657063-2.0455873,1.2344662-4.8489294-.5443045-6.6277-2.0100108-2.0100108-5.265161-2.0100108-7.2751718,0l-3.9951188,3.9951189Z"></path></svg>
