<svg class="social-icon" viewBox="0 0 24 24" fill="currentColor" aria-hidden="true" focusable="false"><path d="M22.75,12.0398924c0-5.9376954-4.8123049-10.75-10.75-10.75S1.25,6.1021971,1.25,12.0398924c0,5.0390625,3.4727538,9.2718745,8.1548827,10.4350586v-7.151269h-2.2171876v-3.2837896h2.2171876v-1.4151366c0-3.6575191,1.6544926-5.3540039,5.2490241-5.3540039.680274,0,1.8560552.1343749,2.3389654.2687501v2.9730467c-.2519531-.0251956-.6928711-.0419922-1.242969-.0419922-1.7636719,0-2.4439458.6676755-2.4439458,2.401953v1.1673829h3.5105471l-.6046872,3.2837896h-2.9100594v7.3864255c5.3246089-.6424812,9.4482422-5.173438,9.4482422-10.6702151h0Z"></path></svg>
