<svg class="social-icon" viewBox="0 0 24 24" fill="currentColor" aria-hidden="true" focusable="false"><path d="M19.525 15.977V.49h-2.059v2.906h-.064a5.5 5.5 0 0 0-.842-1.307A6.5 6.5 0 0 0 15.328.995a5.8 5.8 0 0 0-1.519-.736A6 6 0 0 0 12.038 0c-1.21 0-2.3.225-3.246.67A6.9 6.9 0 0 0 6.407 2.5a8.1 8.1 0 0 0-1.47 2.711 10.6 10.6 0 0 0-.506 3.283q0 1.798.425 3.382c.286 1.057.737 1.976 1.368 2.762a6.4 6.4 0 0 0 2.375 1.833c.961.436 2.119.661 3.471.661 1.248 0 2.33-.315 3.262-.946s1.638-1.473 2.119-2.525h.061v2.284c0 2.044-.421 3.607-1.264 4.705-.84 1.081-2.224 1.638-4.146 1.638a7.7 7.7 0 0 1-1.669-.181 5.4 5.4 0 0 1-1.487-.57 3.9 3.9 0 0 1-1.143-1.038c-.316-.435-.526-.961-.632-1.593H5.064q.102 1.33.737 2.3a5.5 5.5 0 0 0 1.602 1.593 7.2 7.2 0 0 0 2.172.902c.811.194 1.639.3 2.494.3 1.383 0 2.541-.195 3.486-.555.947-.376 1.714-.902 2.301-1.608.601-.708 1.021-1.549 1.293-2.556.27-1.007.42-2.134.42-3.367zm-7.484-.557c-.955 0-1.784-.189-2.479-.571a5.2 5.2 0 0 1-1.732-1.503c-.467-.621-.797-1.332-1.022-2.139s-.332-1.633-.332-2.484c0-.871.105-1.725.301-2.563q.314-1.26.992-2.24c.451-.652 1.037-1.182 1.728-1.584s1.533-.605 2.51-.605 1.803.209 2.495.621a5.25 5.25 0 0 1 1.683 1.634q.654 1.016.947 2.255c.195.826.285 1.656.285 2.482a9.2 9.2 0 0 1-.345 2.484 6.4 6.4 0 0 1-1.038 2.139 5.4 5.4 0 0 1-1.698 1.503c-.676.382-1.458.571-2.359.571z"/></svg>