<svg class="social-icon" viewBox="0 0 24 24" fill="currentColor" aria-hidden="true" focusable="false"><path d="M12.0023982,6.4889015c-3.0505301,0-5.5110987,2.460569-5.5110987,5.5110983s2.4605686,5.5110983,5.5110987,5.5110983,5.5110983-2.4605683,5.5110983-5.5110983-2.4605683-5.5110983-5.5110983-5.5110983ZM12.0023982,15.582934c-1.9713332,0-3.5829334-1.6068042-3.5829334-3.5829334s1.6068042-3.5829334,3.5829334-3.5829334,3.5829327,1.6068042,3.5829327,3.5829334-1.6116009,3.5829334-3.5829334,3.5829334h.0000007ZM19.0243721,6.2634694c0,.7146679-.5755717,1.2854435-1.2854428,1.2854435-.7146679,0-1.2854428-.5755717-1.2854428-1.2854435s.5755717-1.2854435,1.2854428-1.2854435,1.2854428.5755717,1.2854428,1.2854435ZM22.674456,7.5680983c-.0815399-1.7219186-.4748463-3.2471833-1.7363084-4.5038483-1.2566654-1.2566648-2.7819297-1.6499722-4.5038479-1.7363079-1.7746793-.1007251-7.0939204-.1007251-8.8685997,0-1.7171223.0815394-3.2423869.4748465-4.5038483,1.7315115s-1.6499722,2.7819297-1.7363079,4.5038479c-.100725,1.7746793-.100725,7.0939204,0,8.8685997.0815393,1.7219183.4748466,3.247184,1.7363079,4.5038479,1.2614614,1.2566639,2.7819297,1.6499718,4.5038483,1.7363084,1.7746793.1007253,7.0939204.1007253,8.8685997,0,1.7219183-.0815399,3.247184-.4748463,4.5038479-1.7363084,1.2566654-1.2566654,1.6499718-2.7819297,1.7363084-4.5038479.1007253-1.7746793.1007253-7.0891244,0-8.8638037v.0000007ZM20.3817613,18.3360848c-.374121.9401007-1.0983823,1.664362-2.0432797,2.0432797-1.414947.561183-4.7724483.4316787-6.336085.4316787s-4.925934.1247075-6.336085-.4316787c-.9401003-.374121-1.6643614-1.0983823-2.0432793-2.0432797-.5611824-1.414947-.4316787-4.7724483-.4316787-6.336085s-.1247071-4.925934.4316787-6.336085c.3741215-.9401003,1.0983827-1.6643612,2.0432793-2.0432793,1.414947-.5611822,4.7724483-.4316787,6.336085-.4316787s4.9259347-.1247071,6.336085.4316787c.9401007.3741217,1.664362,1.0983827,2.0432797,2.0432793.561183,1.414947.4316787,4.7724483.4316787,6.336085s.1295042,4.9259332-.4316787,6.336085Z"></path></svg>
